<svg version="1.1" viewBox="0.0 0.0 960.0 831.3595800524935" fill="none" stroke="none" stroke-linecap="square" stroke-miterlimit="10" xmlns:xlink="http://www.w3.org/1999/xlink" xmlns="http://www.w3.org/2000/svg"><clipPath id="g3aee5357b5f_0_0.0"><path d="m0 0l960.0 0l0 831.35956l-960.0 0l0 -831.35956z" clip-rule="nonzero"/></clipPath><g clip-path="url(#g3aee5357b5f_0_0.0)"><path fill="#000000" fill-opacity="0.0" d="m0 0l960.0 0l0 831.35956l-960.0 0z" fill-rule="evenodd"/><path fill="#000000" fill-opacity="0.0" d="m637.83466 1066.4567l1077.7007 0l0 150.2992l-1077.7007 0z" fill-rule="evenodd"/><path fill="#e92063" d="m646.2878 1179.1367l34.03125 -75.59375l13.8125 0l34.140625 75.59375l-14.6875 0l-29.28125 -68.140625l5.625 0l-29.15625 68.140625l-14.484375 0zm15.671875 -17.5l3.78125 -11.015625l40.8125 0l3.78125 11.015625l-48.375 0zm74.6264 17.5l0 -57.671875l13.5 0l0 57.671875l-13.5 0zm6.8125 -67.171875q-3.78125 0 -6.21875 -2.375q-2.421875 -2.375 -2.421875 -5.734375q0 -3.453125 2.421875 -5.765625q2.4375 -2.328125 6.21875 -2.328125q3.78125 0 6.203125 2.21875q2.4375 2.203125 2.4375 5.5625q0 3.5625 -2.390625 6.0q-2.375 2.421875 -6.25 2.421875zm24.399475 67.171875l0 -57.671875l12.84375 0l0 15.875l-1.5 -4.640625q2.578125 -5.828125 8.140625 -8.84375q5.5625 -3.03125 13.890625 -3.03125l0 12.84375q-0.875 -0.21875 -1.625 -0.265625q-0.75 -0.0625 -1.515625 -0.0625q-7.671875 0 -12.203125 4.484375q-4.53125 4.484375 -4.53125 13.34375l0 27.96875l-13.5 0zm76.78882 0.75q-7.34375 0 -13.078125 -3.234375q-5.71875 -3.234375 -9.015625 -9.765625q-3.296875 -6.546875 -3.296875 -16.59375q0 -10.140625 3.40625 -16.625q3.40625 -6.484375 9.171875 -9.65625q5.78125 -3.1875 12.8125 -3.1875q8.53125 0 15.0625 3.671875q6.53125 3.671875 10.359375 10.265625q3.84375 6.578125 3.84375 15.53125q0 8.96875 -3.84375 15.5625q-3.828125 6.578125 -10.359375 10.3125q-6.53125 3.71875 -15.0625 3.71875zm-31.96875 -0.75l0 -80.140625l13.5 0l0 35.859375l-1.078125 15.34375l0.421875 15.328125l0 13.609375l-12.84375 0zm30.453125 -10.796875q4.859375 0 8.6875 -2.15625q3.84375 -2.171875 6.109375 -6.265625q2.265625 -4.109375 2.265625 -9.625q0 -5.609375 -2.265625 -9.65625q-2.265625 -4.046875 -6.109375 -6.203125q-3.828125 -2.171875 -8.6875 -2.171875q-4.859375 0 -8.75 2.171875q-3.890625 2.15625 -6.15625 6.203125q-2.265625 4.046875 -2.265625 9.65625q0 5.515625 2.265625 9.625q2.265625 4.09375 6.15625 6.265625q3.890625 2.15625 8.75 2.15625zm46.764893 32.5q-4.21875 0 -8.4375 -1.40625q-4.203125 -1.390625 -7.015625 -3.875l5.40625 -9.9375q2.046875 1.828125 4.640625 2.90625q2.59375 1.078125 5.296875 1.078125q3.671875 0 5.9375 -1.84375q2.265625 -1.828125 4.21875 -6.140625l3.34375 -7.5625l1.078125 -1.625l21.8125 -50.96875l12.96875 0l-27.0 62.3125q-2.703125 6.484375 -6.0 10.265625q-3.296875 3.78125 -7.34375 5.28125q-4.046875 1.515625 -8.90625 1.515625zm11.875 -19.65625l-26.03125 -59.71875l14.046875 0l21.171875 49.78125l-9.1875 9.9375zm67.71814 -1.296875q-9.5 0 -14.6875 -4.90625q-5.1875 -4.921875 -5.1875 -14.53125l0 -51.734375l13.5 0l0 51.40625q0 4.109375 2.109375 6.375q2.109375 2.265625 5.890625 2.265625q4.53125 0 7.5625 -2.375l3.78125 9.625q-2.390625 1.9375 -5.84375 2.90625q-3.453125 0.96875 -7.125 0.96875zm-29.375 -47.625l0 -10.796875l38.453125 0l0 10.796875l-38.453125 0zm78.62927 47.625q-9.609375 0 -16.796875 -3.828125q-7.1875 -3.828125 -11.125 -10.515625q-3.9375 -6.703125 -3.9375 -15.25q0 -8.625 3.828125 -15.265625q3.828125 -6.65625 10.578125 -10.421875q6.75 -3.78125 15.390625 -3.78125q8.437439 0 15.015564 3.671875q6.59375 3.671875 10.375 10.375q3.78125 6.6875 3.78125 15.75q0 0.875 -0.0625 1.953125q-0.046875 1.078125 -0.15625 2.046875l-48.06244 0l0 -8.96875l40.93744 0l-5.296875 2.8125q0.109375 -4.96875 -2.0625 -8.75q-2.15625 -3.78125 -5.890625 -5.9375q-3.718689 -2.15625 -8.578064 -2.15625q-4.96875 0 -8.703125 2.15625q-3.71875 2.15625 -5.828125 6.0q-2.09375 3.828125 -2.09375 9.015625l0 2.15625q0 5.1875 2.375 9.1875q2.375 3.984375 6.6875 6.15625q4.328125 2.15625 9.9375 2.15625q4.859375 0 8.749939 -1.515625q3.890625 -1.515625 6.921875 -4.75l7.234375 8.3125q-3.890625 4.53125 -9.78125 6.96875q-5.875 2.421875 -13.437439 2.421875zm94.60907 0.328125q-8.859375 0 -16.96875 -2.53125q-8.09375 -2.546875 -12.84375 -6.53125l4.859375 -10.921875q4.53125 3.5625 11.21875 5.953125q6.703125 2.375 13.734375 2.375q5.9375 0 9.609375 -1.296875q3.671875 -1.296875 5.390625 -3.515625q1.734375 -2.21875 1.734375 -5.015625q0 -3.46875 -2.484375 -5.5625q-2.484375 -2.109375 -6.4375 -3.34375q-3.9375 -1.25 -8.75 -2.328125q-4.796875 -1.078125 -9.609375 -2.53125q-4.796875 -1.46875 -8.734375 -3.78125q-3.9375 -2.328125 -6.421875 -6.21875q-2.484375 -3.890625 -2.484375 -9.9375q0 -6.15625 3.28125 -11.28125q3.296875 -5.140625 10.046875 -8.21875q6.75 -3.078125 17.125 -3.078125q6.796875 0 13.484375 1.734375q6.703125 1.734375 11.671875 4.96875l-4.421875 10.90625q-5.078125 -3.015625 -10.484375 -4.46875q-5.390625 -1.46875 -10.359375 -1.46875q-5.828125 0 -9.453125 1.40625q-3.609375 1.40625 -5.296875 3.671875q-1.671875 2.265625 -1.671875 5.1875q0 3.453125 2.421875 5.5625q2.4375 2.09375 6.375 3.28125q3.953125 1.1875 8.8125 2.328125q4.859375 1.140625 9.65625 2.546875q4.8125 1.390625 8.75 3.671875q3.953125 2.265625 6.375 6.15625q2.4375 3.875 2.4375 9.8125q0 6.046875 -3.296875 11.1875q-3.296875 5.125 -10.109375 8.203125q-6.796875 3.078125 -17.15625 3.078125zm70.30701 -0.328125q-9.609375 0 -16.796875 -3.828125q-7.1875 -3.828125 -11.125 -10.515625q-3.9375 -6.703125 -3.9375 -15.25q0 -8.625 3.828125 -15.265625q3.828125 -6.65625 10.578125 -10.421875q6.75 -3.78125 15.390625 -3.78125q8.4375 0 15.015625 3.671875q6.59375 3.671875 10.375 10.375q3.78125 6.6875 3.78125 15.75q0 0.875 -0.0625 1.953125q-0.046875 1.078125 -0.15625 2.046875l-48.0625 0l0 -8.96875l40.9375 0l-5.296875 2.8125q0.109375 -4.96875 -2.0625 -8.75q-2.15625 -3.78125 -5.890625 -5.9375q-3.71875 -2.15625 -8.578125 -2.15625q-4.96875 0 -8.703125 2.15625q-3.71875 2.15625 -5.828125 6.0q-2.09375 3.828125 -2.09375 9.015625l0 2.15625q0 5.1875 2.375 9.1875q2.375 3.984375 6.6875 6.15625q4.328125 2.15625 9.9375 2.15625q4.859375 0 8.75 -1.515625q3.890625 -1.515625 6.921875 -4.75l7.234375 8.3125q-3.890625 4.53125 -9.78125 6.96875q-5.875 2.421875 -13.4375 2.421875zm40.06665 -0.75l0 -57.671875l12.84375 0l0 15.875l-1.5 -4.640625q2.578125 -5.828125 8.140625 -8.84375q5.5625 -3.03125 13.890625 -3.03125l0 12.84375q-0.875 -0.21875 -1.625 -0.265625q-0.75 -0.0625 -1.515625 -0.0625q-7.671875 0 -12.203125 4.484375q-4.53125 4.484375 -4.53125 13.34375l0 27.96875l-13.5 0zm62.308105 0l-24.734375 -57.671875l14.046875 0l21.28125 50.875l-6.921875 0l22.03125 -50.875l12.96875 0l-24.734375 57.671875l-13.9375 0zm72.58533 0.75q-9.609375 0 -16.796875 -3.828125q-7.1875 -3.828125 -11.125 -10.515625q-3.9375 -6.703125 -3.9375 -15.25q0 -8.625 3.828125 -15.265625q3.828125 -6.65625 10.578125 -10.421875q6.75 -3.78125 15.390625 -3.78125q8.4375 0 15.015625 3.671875q6.59375 3.671875 10.375 10.375q3.78125 6.6875 3.78125 15.75q0 0.875 -0.0625 1.953125q-0.046875 1.078125 -0.15625 2.046875l-48.0625 0l0 -8.96875l40.9375 0l-5.296875 2.8125q0.109375 -4.96875 -2.0625 -8.75q-2.15625 -3.78125 -5.890625 -5.9375q-3.71875 -2.15625 -8.578125 -2.15625q-4.96875 0 -8.703125 2.15625q-3.71875 2.15625 -5.828125 6.0q-2.09375 3.828125 -2.09375 9.015625l0 2.15625q0 5.1875 2.375 9.1875q2.375 3.984375 6.6875 6.15625q4.328125 2.15625 9.9375 2.15625q4.859375 0 8.75 -1.515625q3.890625 -1.515625 6.921875 -4.75l7.234375 8.3125q-3.890625 4.53125 -9.78125 6.96875q-5.875 2.421875 -13.4375 2.421875zm40.06665 -0.75l0 -57.671875l12.84375 0l0 15.875l-1.5 -4.640625q2.578125 -5.828125 8.140625 -8.84375q5.5625 -3.03125 13.890625 -3.03125l0 12.84375q-0.875 -0.21875 -1.625 -0.265625q-0.75 -0.0625 -1.515625 -0.0625q-7.671875 0 -12.203125 4.484375q-4.53125 4.484375 -4.53125 13.34375l0 27.96875l-13.5 0zm44.819946 0l0 -80.140625l13.5 0l0 80.140625l-13.5 0zm58.32141 0.75q-9.609375 0 -16.796875 -3.828125q-7.1875 -3.828125 -11.125 -10.515625q-3.9375 -6.703125 -3.9375 -15.25q0 -8.625 3.828125 -15.265625q3.828125 -6.65625 10.578125 -10.421875q6.75 -3.78125 15.390625 -3.78125q8.4375 0 15.015625 3.671875q6.59375 3.671875 10.375 10.375q3.78125 6.6875 3.78125 15.75q0 0.875 -0.0625 1.953125q-0.046875 1.078125 -0.15625 2.046875l-48.0625 0l0 -8.96875l40.9375 0l-5.296875 2.8125q0.109375 -4.96875 -2.0625 -8.75q-2.15625 -3.78125 -5.890625 -5.9375q-3.71875 -2.15625 -8.578125 -2.15625q-4.96875 0 -8.703125 2.15625q-3.71875 2.15625 -5.828125 6.0q-2.09375 3.828125 -2.09375 9.015625l0 2.15625q0 5.1875 2.375 9.1875q2.375 3.984375 6.6875 6.15625q4.328125 2.15625 9.9375 2.15625q4.859375 0 8.75 -1.515625q3.890625 -1.515625 6.921875 -4.75l7.234375 8.3125q-3.890625 4.53125 -9.78125 6.96875q-5.875 2.421875 -13.4375 2.421875zm57.87915 0q-7.234375 0 -13.875 -1.890625q-6.640625 -1.890625 -10.53125 -4.578125l5.1875 -10.265625q3.890625 2.484375 9.28125 4.109375q5.40625 1.609375 10.8125 1.609375q6.359375 0 9.21875 -1.71875q2.875 -1.734375 2.875 -4.640625q0 -2.390625 -1.953125 -3.625q-1.9375 -1.234375 -5.078125 -1.875q-3.125 -0.65625 -6.96875 -1.203125q-3.828125 -0.546875 -7.671875 -1.453125q-3.828125 -0.921875 -6.953125 -2.703125q-3.125 -1.78125 -5.078125 -4.796875q-1.9375 -3.03125 -1.9375 -8.0q0 -5.515625 3.125 -9.5625q3.140625 -4.046875 8.796875 -6.25q5.671875 -2.21875 13.453125 -2.21875q5.828125 0 11.765625 1.296875q5.953125 1.28125 9.828125 3.65625l-5.171875 10.265625q-4.109375 -2.484375 -8.265625 -3.390625q-4.15625 -0.921875 -8.265625 -0.921875q-6.15625 0 -9.125 1.84375q-2.96875 1.828125 -2.96875 4.625q0 2.59375 1.9375 3.890625q1.953125 1.296875 5.078125 2.0625q3.140625 0.75 6.96875 1.234375q3.828125 0.484375 7.609375 1.46875q3.78125 0.96875 6.96875 2.640625q3.1875 1.671875 5.125 4.703125q1.953125 3.015625 1.953125 7.875q0 5.40625 -3.1875 9.40625q-3.1875 3.984375 -9.015625 6.203125q-5.828125 2.203125 -13.9375 2.203125zm55.619995 0q-7.234375 0 -13.875 -1.890625q-6.640625 -1.890625 -10.53125 -4.578125l5.1875 -10.265625q3.890625 2.484375 9.28125 4.109375q5.40625 1.609375 10.8125 1.609375q6.359375 0 9.21875 -1.71875q2.875 -1.734375 2.875 -4.640625q0 -2.390625 -1.953125 -3.625q-1.9375 -1.234375 -5.078125 -1.875q-3.125 -0.65625 -6.96875 -1.203125q-3.828125 -0.546875 -7.671875 -1.453125q-3.828125 -0.921875 -6.953125 -2.703125q-3.125 -1.78125 -5.078125 -4.796875q-1.9375 -3.03125 -1.9375 -8.0q0 -5.515625 3.125 -9.5625q3.140625 -4.046875 8.796875 -6.25q5.671875 -2.21875 13.453125 -2.21875q5.828125 0 11.765625 1.296875q5.953125 1.28125 9.828125 3.65625l-5.171875 10.265625q-4.109375 -2.484375 -8.265625 -3.390625q-4.15625 -0.921875 -8.265625 -0.921875q-6.15625 0 -9.125 1.84375q-2.96875 1.828125 -2.96875 4.625q0 2.59375 1.9375 3.890625q1.953125 1.296875 5.078125 2.0625q3.140625 0.75 6.96875 1.234375q3.828125 0.484375 7.609375 1.46875q3.78125 0.96875 6.96875 2.640625q3.1875 1.671875 5.125 4.703125q1.953125 3.015625 1.953125 7.875q0 5.40625 -3.1875 9.40625q-3.1875 3.984375 -9.015625 6.203125q-5.828125 2.203125 -13.9375 2.203125z" fill-rule="nonzero"/><path fill="#00bdd6" d="m0.010498688 415.68503l207.84251 -415.68484l544.31494 0l207.84253 415.68484l-207.84253 415.68484l-544.31494 0z" fill-rule="evenodd"/><path fill="#000000" fill-opacity="0.0" d="m-167.39772 58.406826l1259.8425 0l0 665.7953l-1259.8425 0z" fill-rule="evenodd"/><path fill="#ffffff" d="m460.6512 584.7349q-43.734375 0 -83.734375 -12.53125q-39.984375 -12.53125 -63.453125 -32.265625l24.0 -53.859344q22.390625 17.59375 55.453125 29.328094q33.078125 11.734375 67.734375 11.734375q29.34375 0 47.46875 -6.390625q18.140656 -6.40625 26.671906 -17.34372q8.53125 -10.9375 8.53125 -24.796875q0 -17.0625 -12.265625 -27.46875q-12.265625 -10.40625 -31.734406 -16.53125q-19.46875 -6.140625 -43.203125 -11.46875q-23.734375 -5.328125 -47.46875 -12.53125q-23.734375 -7.203125 -43.203125 -18.671875q-19.453125 -11.46875 -31.71875 -30.65625q-12.265625 -19.203125 -12.265625 -49.078125q0 -30.390625 16.265625 -55.71875q16.265625 -25.34375 49.59375 -40.53125q33.328125 -15.203125 84.53125 -15.203125q33.609375 0 66.671906 8.53125q33.0625 8.53125 57.59375 24.53125l-21.859375 53.859375q-25.078125 -14.921875 -51.75 -22.125q-26.65628 -7.203125 -51.18753 -7.203125q-28.796875 0 -46.671875 6.9375q-17.859375 6.921875 -26.125 18.125q-8.265625 11.203125 -8.265625 25.609375q0 17.0625 12.0 27.46875q12.0 10.390625 31.453125 16.265625q19.46875 5.859375 43.46875 11.46875q24.0 5.59375 47.734406 12.53125q23.734375 6.921875 43.203125 18.125q19.46875 11.203125 31.46875 30.40625q12.0 19.1875 12.0 48.53125q0 29.859375 -16.265625 55.203094q-16.265625 25.328125 -49.875 40.53125q-33.59378 15.1875 -84.796906 15.1875z" fill-rule="nonzero"/><path fill="#000000" fill-opacity="0.0" d="m555.8504 533.985l342.42517 0l0 250.48816l-342.42517 0z" fill-rule="evenodd"/><path fill="#ffffff" d="m580.6785 726.02496l0 -133.45312l65.203125 0q25.171875 0 37.84375 9.53125q12.671875 9.53125 12.671875 25.15625q0 10.484375 -5.15625 18.21875q-5.140625 7.71875 -14.109375 11.921875q-8.953125 4.1875 -20.578125 4.1875l3.625 -7.828125q12.578125 0 22.296875 4.109375q9.734375 4.09375 15.15625 12.109375q5.4375 8.0 5.4375 19.625q0 17.171875 -13.53125 26.796875q-13.53125 9.625 -39.84375 9.625l-69.015625 0zm30.6875 -23.265625l36.03125 0q12.015625 0 18.203125 -3.90625q6.203125 -3.90625 6.203125 -12.484375q0 -8.390625 -6.203125 -12.484375q-6.1875 -4.109375 -18.203125 -4.109375l-38.3125 0l0 -22.484375l32.984375 0q11.25 0 17.25 -3.90625q6.0 -3.921875 6.0 -11.921875q0 -7.8125 -6.0 -11.71875q-6.0 -3.921875 -17.25 -3.921875l-30.703125 0l0 86.9375zm115.16449 23.265625l0 -133.45312l30.875 0l0 133.45312l-30.875 0z" fill-rule="nonzero"/></g></svg>