<svg version="1.1" viewBox="0.0 0.0 960.0 831.3595800524935" fill="none" stroke="none" stroke-linecap="square" stroke-miterlimit="10" xmlns:xlink="http://www.w3.org/1999/xlink" xmlns="http://www.w3.org/2000/svg"><clipPath id="p.0"><path d="m0 0l960.0 0l0 831.35956l-960.0 0l0 -831.35956z" clip-rule="nonzero"/></clipPath><g clip-path="url(#p.0)"><path fill="#000000" fill-opacity="0.0" d="m0 0l960.0 0l0 831.35956l-960.0 0z" fill-rule="evenodd"/><path fill="#3367d6" d="m127.18112 279.04926l27.007874 -72.058105l54.015747 0l27.007874 72.058105l-27.007874 72.058075l-54.015747 0z" fill-rule="evenodd"/><path fill="#000000" fill-opacity="0.0" d="m151.54596 216.75809l28.220474 0l0 75.93744l-28.220474 0z" fill-rule="evenodd"/><path fill="#ffffff" d="m165.45221 270.55807l0 -32.65625l14.640625 0q5.640625 0 8.671875 2.265625q3.046875 2.25 3.046875 6.171875q0 2.65625 -1.203125 4.484375q-1.1875 1.8125 -3.1875 2.796875q-2.0 0.984375 -4.34375 0.984375l0.84375 -1.40625q2.796875 0 4.9375 0.984375q2.15625 0.984375 3.40625 2.875q1.265625 1.875 1.265625 4.6875q0 4.1875 -3.15625 6.5q-3.140625 2.3125 -9.34375 2.3125l-15.578125 0zm4.65625 -3.78125l10.734375 0q3.875 0 5.921875 -1.296875q2.0625 -1.3125 2.0625 -4.109375q0 -2.84375 -2.0625 -4.15625q-2.046875 -1.3125 -5.921875 -1.3125l-11.15625 0l0 -3.765625l9.984375 0q3.546875 0 5.5 -1.3125q1.96875 -1.3125 1.96875 -3.921875q0 -2.609375 -1.96875 -3.90625q-1.953125 -1.3125 -5.5 -1.3125l-9.5625 0l0 25.09375z" fill-rule="nonzero"/><path fill="#000000" fill-opacity="0.0" d="m182.97375 260.56998l28.220474 0l0 54.940674l-28.220474 0z" fill-rule="evenodd"/><path fill="#ffffff" d="m190.80188 297.72998l8.53125 -8.765625l-0.296875 1.4375l-4.6875 -8.21875l2.9375 0l3.65625 6.515625l-1.28125 -0.03125l6.1875 -6.484375l3.1875 0l-8.140625 8.453125l0.234375 -1.59375l4.984375 8.6875l-3.0 0l-3.8125 -6.796875l1.265625 0l-6.484375 6.796875l-3.28125 0z" fill-rule="nonzero"/><path fill="#3367d6" d="m0 415.6929l207.84251 -415.68484l544.31494 0l207.84253 415.68484l-207.84253 415.68484l-544.31494 0z" fill-rule="evenodd"/><path fill="#000000" fill-opacity="0.0" d="m264.0 56.0l314.96063 0l0 665.7953l-314.96063 0z" fill-rule="evenodd"/><path fill="#ffffff" d="m323.14062 577.0l0 -373.32812l174.92188 0q67.203125 0 102.390625 26.40625q35.203125 26.390625 35.203125 70.65625q0 29.875 -13.859375 50.9375q-13.859375 21.0625 -37.0625 32.53125q-23.203125 11.46875 -50.40625 11.46875l9.609375 -19.203125q31.453125 0 56.515625 11.46875q25.078125 11.46875 39.734375 33.34375q14.671875 21.859375 14.671875 54.390625q0 48.0 -36.796875 74.671875q-36.796875 26.65625 -109.328125 26.65625l-185.59375 0zm69.328125 -54.40625l112.0 0q38.921875 0 59.71875 -12.796875q20.8125 -12.796875 20.8125 -41.0625q0 -27.734375 -20.8125 -40.796875q-20.796875 -13.0625 -59.71875 -13.0625l-117.34375 0l0 -53.875l103.46875 0q36.265625 0 55.734375 -12.796875q19.46875 -12.796875 19.46875 -38.40625q0 -26.125 -19.46875 -38.921875q-19.46875 -12.8125 -55.734375 -12.8125l-98.125 0l0 264.53125z" fill-rule="nonzero"/><path fill="#000000" fill-opacity="0.0" d="m571.8504 386.40683l342.42517 0l0 423.40158l-342.42517 0z" fill-rule="evenodd"/><path fill="#ffffff" d="m588.8504 720.0787q-5.0 0 -9.328125 -3.171875q-4.34375 -3.171875 -4.34375 -9.5q0 -4.0 2.5 -8.828125q2.5 -4.84375 6.171875 -8.5q3.671875 -3.671875 6.328125 -3.671875q2.671875 0 3.828125 1.84375q1.171875 1.828125 1.515625 4.15625q1.0 4.0 2.65625 5.84375q1.671875 1.828125 3.671875 1.828125q2.328125 0.328125 4.65625 -0.828125q2.34375 -1.171875 4.34375 -3.171875q6.671875 -7.0 11.828125 -12.828125q5.171875 -5.84375 10.5 -12.171875q5.34375 -6.34375 12.34375 -14.34375q1.328125 -1.328125 1.484375 -2.984375q0.171875 -1.671875 -0.484375 -3.015625l-12.671875 -46.65625q-1.0 -3.671875 -2.0 -4.671875q-1.0 -1.0 -3.0 -1.0q-2.328125 0 -7.328125 4.171875q-5.0 4.15625 -11.34375 13.15625q-0.65625 1.0 -2.0 3.171875q-1.328125 2.171875 -3.65625 2.171875q-1.34375 0 -1.84375 -1.671875q-0.5 -1.671875 -0.5 -4.0q0 -5.0 3.5 -11.328125q3.5 -6.34375 8.828125 -12.5q5.34375 -6.171875 11.671875 -10.171875q6.34375 -4.0 11.671875 -4.0q5.328125 0 8.5 4.171875q3.171875 4.15625 5.5 12.828125l8.328125 35.328125q1.0 5.34375 4.671875 0.671875l23.328125 -33.328125q5.0 -7.0 13.0 -13.328125q8.0 -6.34375 17.0 -6.34375q6.671875 0 11.671875 5.171875q5.0 5.15625 5.328125 9.15625q0.34375 2.34375 -2.0 6.84375q-2.328125 4.5 -5.5 8.0q-3.15625 3.5 -6.15625 3.5q-2.0 0 -3.5 -1.671875q-1.5 -1.671875 -2.5 -4.0q-1.671875 -4.671875 -3.34375 -6.171875q-1.65625 -1.5 -4.0 -1.5q-4.0 0 -8.671875 3.5q-4.65625 3.5 -10.328125 10.5q-4.65625 5.34375 -10.15625 12.171875q-5.5 6.828125 -11.84375 16.5q-1.328125 2.0 -1.671875 4.671875q-0.328125 2.65625 1.015625 7.0l11.328125 41.0q1.328125 4.328125 3.328125 6.171875q2.0 1.828125 3.671875 1.828125q4.671875 0 10.828125 -7.171875q6.171875 -7.171875 11.171875 -19.5q2.0 -4.671875 4.328125 -4.671875q1.34375 0 2.171875 1.171875q0.828125 1.171875 0.828125 6.171875q0 4.65625 -2.671875 12.0q-2.65625 7.328125 -7.328125 14.671875q-4.65625 7.328125 -11.0 12.328125q-6.328125 5.0 -13.65625 5.0q-9.34375 0 -13.671875 -5.671875q-4.328125 -5.671875 -7.328125 -16.671875q-1.671875 -7.0 -3.671875 -15.15625q-2.0 -8.171875 -3.671875 -15.171875q-1.0 -4.0 -2.171875 -4.328125q-1.15625 -0.34375 -3.15625 2.328125q-8.0 10.0 -16.0 20.671875q-8.0 10.65625 -16.328125 20.328125q-7.0 8.328125 -12.84375 11.0q-5.828125 2.671875 -11.828125 2.671875z" fill-rule="nonzero"/></g></svg>