<svg width="105" height="16" viewBox="0 0 105 16" fill="none" xmlns="http://www.w3.org/2000/svg"><path d="M32.158 12.658c-1.306 0-2.644-.709-2.644-2.255 0-1.286.647-2.326 3.482-2.326h1.464c-.014-1.587-1.155-1.655-1.506-1.655-.227 0-1.195.027-1.422.742h-1.777c.39-2.176 2.872-2.24 3.241-2.24 1.09 0 3.128.283 3.128 3.582v4.053h-1.535l-.042-.97c-.677 1.069-2.14 1.069-2.389 1.069zm.343-1.411c1.088 0 1.976-.66 1.976-1.698v-.242h-1.365c-1.22 0-1.876.16-1.876.942 0 .783.79 1 1.265 1v-.002zm35.943 1.411c-1.306 0-2.644-.709-2.644-2.255 0-1.286.647-2.326 3.483-2.326h1.463c-.014-1.587-1.155-1.655-1.505-1.655-.227 0-1.196.027-1.423.742h-1.777c.391-2.176 2.872-2.24 3.242-2.24 1.09 0 3.127.283 3.127 3.582v4.053h-1.535l-.042-.97c-.677 1.069-2.14 1.069-2.389 1.069zm.34-1.411c1.089 0 1.977-.66 1.977-1.698v-.242h-1.365c-1.22 0-1.876.16-1.876.942 0 .783.79 1 1.265 1v-.002zm-27.529 4.751c-.55 0-2.942-.061-3.41-2.539h1.776c.231.928 1.416.955 1.664.955 1.27 0 1.848-.79 1.848-2.14v-.713c-.689 1.099-2.046 1.084-2.331 1.084-2.443 0-3.313-1.839-3.313-3.796 0-1.343.555-3.924 3.426-3.924.446 0 1.515.086 2.246.942l.113-.826h1.607v6.864c0 3.507-1.966 4.095-3.623 4.095l-.003-.002zm-.098-4.894c1.848 0 2.004-1.922 2.004-2.341 0-.42-.103-2.27-1.99-2.27-1.886 0-1.961 1.928-1.961 2.327 0 .42.05 2.284 1.947 2.284zm8.754 1.554c-2.707 0-3.638-1.991-3.638-3.838 0-2.387 1.416-3.895 3.653-3.895 2.523 0 3.718 2.22 3.34 4.437h-5.26c.198 1.748 1.498 1.811 1.905 1.811.238 0 1.34-.055 1.593-.841h1.735c-.515 2.24-2.815 2.326-3.325 2.326h-.003zm-1.875-4.593h3.61c-.062-1.356-1.069-1.685-1.762-1.685-.892 0-1.703.464-1.848 1.685zm46.178 4.593c-2.708 0-3.638-1.991-3.638-3.838 0-2.387 1.415-3.895 3.653-3.895 2.522 0 3.717 2.22 3.34 4.437h-5.26c.197 1.748 1.497 1.811 1.905 1.811.237 0 1.34-.055 1.592-.841h1.735c-.515 2.24-2.815 2.326-3.325 2.326h-.002zm-1.878-4.593h3.61c-.062-1.356-1.068-1.685-1.762-1.685-.892 0-1.703.464-1.848 1.685zm-34.749 4.593c-.838 0-2.985-.203-3.269-2.354h1.748c.286.789 1.275.886 1.607.886.676 0 1.336-.158 1.336-.827 0-.268-.055-.603-1.11-.799-.512-.095-.913-.188-1.308-.278-1.682-.39-2.046-1.198-2.046-2.134 0-1.862 1.926-2.227 2.985-2.227.6 0 2.695.154 2.943 2.254h-1.649c-.153-.692-.981-.784-1.35-.784-.29 0-1.253.054-1.253.77 0 .364.227.645.952.813.378.089 1.474.283 1.79.367 1.081.293 1.735.797 1.735 1.974 0 2.218-2.418 2.34-3.113 2.34l.002-.001zm44.302 0c-.838 0-2.985-.203-3.268-2.354h1.747c.286.789 1.275.886 1.607.886.677 0 1.336-.158 1.336-.827 0-.268-.055-.603-1.109-.799-.513-.095-.914-.188-1.309-.278-1.682-.39-2.046-1.198-2.046-2.134 0-1.862 1.927-2.227 2.985-2.227.601 0 2.695.154 2.943 2.254h-1.649c-.153-.692-.981-.784-1.35-.784-.29 0-1.252.054-1.252.77 0 .364.227.645.951.813.378.089 1.475.283 1.79.367 1.082.293 1.735.797 1.735 1.974 0 2.218-2.418 2.34-3.113 2.34l.002-.001zm-40.964 2.697v-1.542h.54c.81 0 1.052-.39 1.052-1.212V5.039h1.735v7.804c0 1.898-.83 2.512-2.416 2.512h-.911zm16.445-2.697c-2.336 0-3.34-1.295-3.34-3.41v-4.21h1.735v4.096c0 .782.178 1.955 1.607 1.955 1.428 0 1.577-1.158 1.577-1.955V5.039h1.735v4.209c0 2.44-1.294 3.41-3.312 3.41h-.002zm4.961-.099v-7.52h1.62l.099.955c.724-1.01 2.102-1.071 2.359-1.071 1.858 0 2.814 1.155 2.814 3.481v4.152h-1.735V8.69c0-1.535-.498-2.197-1.535-2.197-1.038 0-1.89.816-1.89 2.454v3.61h-1.736l.004.003zM25.109 4.925c-.494 0-1.63.08-2.403 1.126l-.087-1.012H21v10.288h1.735v-3.595c.769.909 1.939.928 2.288.928 3.029 0 3.354-2.83 3.354-3.868 0-1.708-.714-3.867-3.268-3.867zm.781 5.843c-.586.445-1.722.413-2.287.015-.299-.21-.883-.72-.883-1.976 0-1.257.616-1.786.904-1.99.65-.465 1.697-.405 2.239.006.285.217.81.755.81 1.997 0 1.126-.457 1.701-.78 1.948h-.003zM63.39 2c-.632 0-1.1.453-1.1 1.084 0 .599.376 1.084 1.1 1.084.62 0 1.101-.416 1.101-1.084 0-.702-.56-1.084-1.1-1.084z" fill="#000"/><g clip-path="url(#clip0_141_1184)"><path d="M15.662 0H.337A.342.342 0 000 .347v15.306c0 .191.151.347.337.347h15.326a.342.342 0 00.337-.347V.347A.342.342 0 0015.663 0h-.002z" fill="#FFDE07"/><path d="M11.114 7.906l-.044-2.968h1.491v3.034c0 2.347-1.9 4.575-4.558 4.575-2.136 0-4.013-1.62-4.4-3.809h1.484c.364 1.37 1.576 2.323 2.958 2.323 1.692 0 3.068-1.414 3.068-3.154zM4.253 4.79a.827.827 0 00-.815.84c0 .464.366.84.815.84.49 0 .814-.44.814-.84 0-.484-.349-.84-.814-.84z" fill="#000"/></g><defs><clipPath id="clip0_141_1184"><path fill="#fff" d="M0 0h16v16H0z"/></clipPath></defs></svg>