<?xml version="1.0" encoding="UTF-8"?> <svg xmlns="http://www.w3.org/2000/svg" width="531" height="177" viewBox="0 0 531 177" fill="none"><mask id="mask0_2874_4607" maskUnits="userSpaceOnUse" x="108" y="133" width="323" height="34"><path d="M108.167 133.733H430.7V166.121H108.167V133.733Z" fill="white"></path></mask><g mask="url(#mask0_2874_4607)"><path d="M422.987 141.737C420.383 141.737 418.524 142.69 417.31 144.557V142.206H413.354V160.528H417.31V150.71C417.31 147.153 419.177 145.432 421.966 145.432C424.493 145.432 426.068 146.938 426.068 149.681V160.528H430.024V149.281C430.024 144.587 427.205 141.737 422.987 141.737ZM396.038 155.512C394.939 154.413 394.394 153.023 394.394 151.371C394.394 149.719 394.939 148.329 396.038 147.23C397.136 146.132 398.489 145.578 400.11 145.578C401.723 145.578 403.083 146.132 404.173 147.23C405.272 148.329 405.825 149.719 405.825 151.371C405.825 153.023 405.272 154.413 404.173 155.512C403.083 156.61 401.723 157.163 400.11 157.163C398.489 157.163 397.136 156.61 396.038 155.512ZM400.102 161.004C402.806 161.004 405.08 160.09 406.947 158.216C408.814 156.349 409.766 154.075 409.766 151.371C409.766 148.667 408.814 146.393 406.947 144.526C405.08 142.659 402.806 141.737 400.102 141.737C397.39 141.737 395.116 142.651 393.257 144.526C391.39 146.393 390.438 148.667 390.438 151.371C390.438 154.075 391.39 156.349 393.257 158.216C395.116 160.083 397.436 161.004 400.102 161.004ZM386.865 160.528V142.206H382.909V160.528H386.865ZM386.642 138.734C387.672 137.712 387.672 136.168 386.689 135.177C385.69 134.155 384.084 134.155 383.101 135.177C382.102 136.168 382.102 137.712 383.101 138.734C384.123 139.717 385.659 139.717 386.658 138.734H386.642ZM379.321 142.206H374.781V137.082L370.825 138.25V142.206H367.452V146.024H370.825V154.813C370.825 159.614 373.275 161.266 379.321 160.536V156.979C376.317 157.125 374.781 157.163 374.781 154.813V146.024H379.321V142.206ZM364.502 160.528V142.206H360.546V160.528H364.502ZM364.287 138.734C365.309 137.712 365.309 136.168 364.325 135.177C363.334 134.155 361.721 134.155 360.738 135.177C359.747 136.168 359.747 137.712 360.738 138.734C361.76 139.717 363.304 139.717 364.295 138.734H364.287ZM342.054 155.581C340.956 154.444 340.403 153.053 340.403 151.371C340.403 149.688 340.956 148.298 342.054 147.199C343.153 146.062 344.544 145.517 346.195 145.517C347.847 145.517 349.237 146.07 350.336 147.199C351.435 148.298 351.988 149.688 351.988 151.371C351.988 153.053 351.435 154.444 350.336 155.581C349.237 156.679 347.847 157.232 346.195 157.232C344.544 157.232 343.153 156.679 342.054 155.581ZM351.98 144.81C350.474 142.759 348.346 141.737 345.565 141.737C343.03 141.737 340.91 142.651 339.112 144.526C337.322 146.393 336.439 148.667 336.439 151.371C336.439 154.075 337.322 156.349 339.112 158.216C340.91 160.083 343.03 161.004 345.565 161.004C348.346 161.004 350.474 159.983 351.98 157.893V160.528H355.936V134.885H351.98V144.81ZM328.887 152.032C328.887 155.581 327.02 157.309 324.232 157.309C321.704 157.309 320.137 155.804 320.137 153.053V142.206H316.18V153.453C316.18 158.147 319 160.997 323.21 160.997C325.814 160.997 327.681 160.044 328.887 158.177V160.528H332.843V142.206H328.887V152.032ZM302.46 139.832L306.524 151.409H298.388L302.46 139.832ZM314.252 160.528L304.987 134.885H299.932L290.629 160.528H295.208L297.005 155.358H307.922L309.712 160.528H314.252ZM267.651 157.079C264.609 157.079 262.888 155.542 262.888 153.169C262.888 151.256 263.803 149.865 265.6 148.951L271.907 155.727C270.694 156.641 269.303 157.079 267.651 157.079ZM277.108 155.619C278.107 154.037 278.791 152.247 279.236 150.195L275.649 148.144C275.388 149.865 274.95 151.371 274.327 152.615L268.097 145.87C267.068 144.803 266.668 144.334 266.23 143.304C266.007 142.797 265.9 142.283 265.9 141.768C265.9 139.832 267.475 138.511 269.526 138.511C271.577 138.511 273.114 139.755 273.813 141.806L277.4 139.755C276.048 136.352 273.006 134.408 269.488 134.408C267.29 134.408 265.416 135.069 263.918 136.429C262.412 137.781 261.69 139.502 261.69 141.668C261.69 143.312 262.159 144.779 263.15 146.132C260.223 147.714 258.64 150.418 258.64 153.491C258.64 155.804 259.454 157.632 261.06 158.984C262.712 160.344 264.832 161.004 267.436 161.004C270.187 161.004 272.56 160.198 274.581 158.585L277.032 161.22L280.435 159.245L277.101 155.619H277.108ZM231.721 149.834C232.267 147.046 234.318 145.325 237.253 145.325C239.857 145.325 241.946 146.861 242.492 149.834H231.721ZM246.333 153.053C246.448 152.354 246.479 151.801 246.479 151.402C246.479 148.728 245.596 146.423 243.875 144.557C242.154 142.69 239.957 141.737 237.283 141.737C234.464 141.737 232.121 142.651 230.323 144.526C228.533 146.354 227.611 148.621 227.611 151.371C227.611 154.121 228.526 156.464 230.354 158.3C232.19 160.09 234.61 161.012 237.575 161.012C241.124 161.012 243.806 159.691 245.596 157.017L242.338 155.112C241.27 156.618 239.703 157.386 237.614 157.386C234.571 157.386 232.336 155.85 231.752 153.061H246.333V153.053ZM220.06 152.032C220.06 155.581 218.193 157.309 215.404 157.309C212.877 157.309 211.302 155.804 211.302 153.053V142.206H207.345V153.453C207.345 158.147 210.165 160.997 214.382 160.997C216.979 160.997 218.846 160.044 220.06 158.177V160.528H224.016V142.206H220.06V152.032ZM189.208 155.581C188.109 154.444 187.556 153.053 187.556 151.371C187.556 149.688 188.109 148.298 189.208 147.199C190.306 146.062 191.697 145.517 193.348 145.517C195 145.517 196.39 146.07 197.489 147.199C198.588 148.298 199.141 149.688 199.141 151.371C199.141 153.053 198.588 154.444 197.489 155.581C196.39 156.679 195 157.232 193.348 157.232C191.697 157.232 190.306 156.679 189.208 155.581ZM199.141 144.849C197.635 142.759 195.507 141.737 192.726 141.737C190.191 141.737 188.071 142.69 186.273 144.557C184.483 146.423 183.599 148.697 183.599 151.371C183.599 154.044 184.483 156.349 186.273 158.216C188.071 160.083 190.191 161.004 192.726 161.004C195.507 161.004 197.635 159.983 199.141 157.932V167.865H203.097V142.214H199.141V144.849ZM180.035 160.528V142.206H176.079V160.528H180.035ZM179.812 138.734C180.842 137.712 180.842 136.168 179.851 135.177C178.859 134.155 177.254 134.155 176.263 135.177C175.272 136.168 175.272 137.712 176.263 138.734C177.292 139.717 178.829 139.717 179.82 138.734H179.812ZM172.491 142.206H167.951V137.082L163.994 138.25V142.206H160.622V146.024H163.994V154.813C163.994 159.614 166.453 161.266 172.491 160.536V156.979C169.487 157.125 167.951 157.163 167.951 154.813V146.024H172.491V142.206ZM145.157 155.581C144.066 154.444 143.513 153.053 143.513 151.371C143.513 149.688 144.066 148.298 145.157 147.199C146.256 146.062 147.654 145.517 149.298 145.517C150.95 145.517 152.34 146.07 153.439 147.199C154.537 148.298 155.09 149.688 155.09 151.371C155.09 153.053 154.537 154.444 153.439 155.581C152.34 156.679 150.95 157.232 149.298 157.232C147.654 157.232 146.256 156.679 145.157 155.581ZM149.92 141.737C147.132 141.737 145.011 142.759 143.506 144.849V142.214H139.549V167.865H143.506V157.932C145.011 159.983 147.132 161.004 149.92 161.004C152.448 161.004 154.568 160.09 156.366 158.216C158.156 156.357 159.039 154.075 159.039 151.371C159.039 148.667 158.156 146.423 156.366 144.557C154.568 142.69 152.448 141.737 149.92 141.737ZM116.187 154.306C114.459 152.539 113.583 150.349 113.583 147.714C113.583 145.079 114.459 142.874 116.187 141.153C117.947 139.387 120.098 138.518 122.671 138.518C125.245 138.518 127.396 139.402 129.117 141.153C130.884 142.874 131.752 145.071 131.752 147.714C131.752 150.357 130.876 152.546 129.117 154.306C127.396 156.026 125.237 156.902 122.671 156.902C120.105 156.902 117.947 156.026 116.187 154.306ZM132.082 157.163C134.686 154.559 135.969 151.409 135.969 147.714C135.969 144.011 134.686 140.862 132.082 138.296C129.516 135.691 126.366 134.408 122.664 134.408C118.961 134.408 115.819 135.691 113.214 138.296C110.648 140.854 109.365 144.011 109.365 147.714C109.365 151.409 110.648 154.559 113.214 157.163C115.819 159.722 118.961 161.004 122.664 161.004C126.366 161.004 129.508 159.722 132.082 157.163Z" fill="white"></path></g><path fill-rule="evenodd" clip-rule="evenodd" d="M44.3038 68.0642C44.3038 45.8393 62.4264 27.8397 84.7972 27.8397C95.2297 27.8397 104.756 31.7577 111.916 38.2108C99.2169 41.3682 88.4386 52.0697 88.4386 67.7953C88.4386 83.5133 99.4627 94.5527 112.346 97.5642C105.125 104.217 95.4525 108.289 84.7972 108.289C62.4187 108.289 44.3038 90.2891 44.3038 68.0642Z" fill="#919CCE"></path><path d="M118.008 45.1172C122.602 51.6318 125.298 59.5599 125.298 68.1333C125.298 76.7145 122.725 84.2508 118.346 90.6962C107.882 89.9664 97.5651 81.7617 97.5651 67.8645C97.5651 53.9672 107.66 46.0007 118.038 45.1172H118.008Z" fill="#FCB813"></path><path fill-rule="evenodd" clip-rule="evenodd" d="M190.467 76.4384C190.467 85.2269 184.344 91.0347 176.808 91.0347C172.344 91.0347 168.542 89.2755 166.314 87.1398V66.1902C168.542 63.7011 172.245 61.9265 176.808 61.9265C184.337 61.9265 190.467 67.7343 190.467 76.4307V76.4384ZM199.002 76.4384C199.002 61.9342 187.371 54.5438 178.375 54.5438C172.613 54.5438 167.966 56.1264 165.369 58.892L165.092 55.5809H157.84V118.737H166.283V95.6518C168.434 97.0576 172.222 98.4251 176.785 98.4251C189.338 98.4251 199.01 89.3676 199.01 76.4384H199.002Z" fill="white"></path><path fill-rule="evenodd" clip-rule="evenodd" d="M234.264 55.5805H219.383V42.7511L211.033 47.0993V55.5805H202.766V62.3333H211.033V85.3187C211.033 93.6232 217.148 98.0559 224.807 98.0559C226.489 98.0559 227.68 97.9714 228.633 97.6872L230.315 90.2046C229.001 90.6656 227.442 90.8499 225.66 90.8499C222.233 90.8499 219.414 88.9908 219.414 85.5876V62.3333H232.789L234.287 55.5805H234.256H234.264Z" fill="white"></path><path fill-rule="evenodd" clip-rule="evenodd" d="M250.704 97.4183V55.5805H242.169V97.4183H250.704ZM251.618 42.4745C251.618 40.7153 248.192 37.312 246.417 37.312C244.735 37.312 241.301 40.7153 241.301 42.4745C241.301 44.1493 244.735 47.5525 246.417 47.5525C248.192 47.5525 251.618 44.1493 251.618 42.4745Z" fill="white"></path><path fill-rule="evenodd" clip-rule="evenodd" d="M294.992 57.7093C291.474 55.7657 287.095 54.575 281.525 54.575C269.986 54.575 258.655 62.7873 258.655 76.5617C258.655 90.336 270.017 98.4562 281.525 98.4562C285.72 98.4562 289.515 97.7264 292.572 96.3282L294.355 88.1158C289.615 90.336 286.188 91.0658 282.263 91.0658C274.55 91.0658 267.205 85.5346 267.205 76.5617C267.205 67.5888 274.365 61.973 282.086 61.973C286.188 61.973 289.615 62.7028 293.44 65.0997L295.031 57.7093H294.992Z" fill="white"></path><path fill-rule="evenodd" clip-rule="evenodd" d="M386.519 76.5305C386.519 85.2269 380.089 91.0347 372.745 91.0347C365.401 91.0347 358.878 85.2269 358.878 76.5305C358.878 67.8342 365.308 61.9342 372.745 61.9342C380.174 61.9342 386.519 67.742 386.519 76.5305ZM395.054 76.5305C395.054 63.5167 385.29 54.5438 372.745 54.5438C360.192 54.5438 350.336 63.5167 350.336 76.5305C350.336 89.5443 360.192 98.4251 372.745 98.4251C385.29 98.4251 395.054 89.4522 395.054 76.5305Z" fill="white"></path><path fill-rule="evenodd" clip-rule="evenodd" d="M436.531 76.5305C436.531 85.2269 430.101 91.0347 422.756 91.0347C415.412 91.0347 408.898 85.2269 408.898 76.5305C408.898 67.8342 415.328 61.9342 422.756 61.9342C430.185 61.9342 436.531 67.742 436.531 76.5305ZM445.066 76.5305C445.066 63.5167 435.309 54.5438 422.756 54.5438C410.204 54.5438 400.347 63.5167 400.347 76.5305C400.347 89.5443 410.204 98.4251 422.756 98.4251C435.309 98.4251 445.066 89.4522 445.066 76.5305Z" fill="white"></path><path fill-rule="evenodd" clip-rule="evenodd" d="M486.543 76.5305C486.543 85.2269 480.113 91.0347 472.807 91.0347C465.493 91.0347 458.94 85.2269 458.94 76.5305C458.94 67.8342 465.37 61.9342 472.807 61.9342C480.236 61.9342 486.543 67.742 486.543 76.5305ZM495.085 76.5305C495.085 63.5167 485.321 54.5438 472.768 54.5438C460.223 54.5438 450.367 63.5167 450.367 76.5305C450.367 89.5443 460.223 98.4251 472.768 98.4251C485.321 98.4251 495.085 89.4522 495.085 76.5305Z" fill="white"></path><path d="M345.28 90.0895V97.4184H309.773V95.3518C314.49 90.3891 333.895 70.538 333.895 59.4371C333.895 53.0531 329.854 50.0801 324.615 50.0801C320.06 50.0801 316.841 51.7471 313.176 54.1517L311.363 46.6384C315.496 43.965 319.66 42.5975 324.615 42.5975C334.848 42.5975 342.407 48.5513 342.407 59.6906C342.407 69.693 330.776 83.8361 324.561 90.1279H345.257L345.288 90.0971L345.28 90.0895Z" fill="white"></path><path fill-rule="evenodd" clip-rule="evenodd" d="M142.161 67.8642C142.161 82.4529 130.622 90.7575 119.851 90.7575C109.081 90.7575 97.5421 82.4529 97.5421 67.8642C97.5421 53.2679 108.897 45.0555 119.851 45.0555C130.806 45.0555 142.161 53.2602 142.161 67.8642ZM151.287 67.8642C151.287 48.9197 135.677 37.3041 119.851 37.3041C104.026 37.3041 88.4155 48.9504 88.4155 67.8642C88.4155 86.778 104.026 98.5166 119.851 98.5166C135.677 98.5166 151.287 86.9547 151.287 67.8642Z" fill="white"></path></svg> 