<svg version="1.1" viewBox="0.0 0.0 864.0 201.6010498687664" fill="none" stroke="none" stroke-linecap="square" stroke-miterlimit="10" xmlns:xlink="http://www.w3.org/1999/xlink" xmlns="http://www.w3.org/2000/svg"><clipPath id="p.0"><path d="m0 0l864.0 0l0 201.60104l-864.0 0l0 -201.60104z" clip-rule="nonzero"/></clipPath><g clip-path="url(#p.0)"><path fill="#ffffff" d="m0 0l864.0 0l0 201.60104l-864.0 0z" fill-rule="evenodd"/><path fill="#c790af" d="m16.664042 100.80109l45.708664 -91.41728l113.937004 0l45.708664 91.41728l-45.708664 91.41728l-113.937004 0z" fill-rule="evenodd"/><path stroke="#c790af" stroke-width="3.0" stroke-linejoin="round" stroke-linecap="butt" d="m16.664042 100.80109l45.708664 -91.41728l113.937004 0l45.708664 91.41728l-45.708664 91.41728l-113.937004 0z" fill-rule="evenodd"/><path fill="#ffffff" d="m119.34418 158.14046q-23.046875 0 -36.046875 -12.828125q-12.984375 -12.84375 -12.984375 -36.671883l0 -60.624996l25.0625 0l0 59.70312q0 15.46875 6.328125 22.281258q6.34375 6.796875 17.796875 6.796875q11.4375 0 17.78125 -6.796875q6.34375 -6.8125076 6.34375 -22.281258l0 -59.70312l24.734375 0l0 60.624996q0 23.828133 -12.984375 36.671883q-12.984375 12.828125 -36.03125 12.828125z" fill-rule="nonzero"/><path fill="#000000" fill-opacity="0.0" d="m241.101 -2.6162393l645.3228 0l0 206.83464l-645.3228 0z" fill-rule="evenodd"/><path fill="#c790af" d="m311.19476 156.41063q-22.28125 0 -34.890625 -12.515625q-12.59375 -12.53125 -12.59375 -36.203125l0 -61.093746l20.109375 0l0 60.32812q0 16.703125 7.1875 24.28125q7.1875 7.578125 20.34375 7.578125q13.140625 0 20.25 -7.578125q7.125 -7.578125 7.125 -24.28125l0 -60.32812l19.78125 0l0 61.093746q0 23.671875 -12.609375 36.203125q-12.59375 12.515625 -34.703125 12.515625zm73.61746 -1.546875l0 -82.59375l18.390625 0l0 22.28125l-3.234375 -6.8125q4.328125 -7.890625 12.59375 -12.140625q8.28125 -4.25 19.109375 -4.25q9.890625 0 17.703125 3.875q7.8125 3.859375 12.296875 11.828125q4.484375 7.953125 4.484375 20.484375l0 47.328125l-19.328125 0l0 -44.84375q0 -10.984375 -5.1875 -16.390625q-5.171875 -5.421875 -14.453125 -5.421875q-6.8125 0 -12.078125 2.78125q-5.25 2.78125 -8.109375 8.28125q-2.859375 5.484375 -2.859375 13.84375l0 41.75l-19.328125 0zm110.72568 31.078125q-6.03125 0 -12.0625 -2.015625q-6.03125 -2.0 -10.046875 -5.5625l7.734375 -14.21875q2.9375 2.625 6.640625 4.171875q3.71875 1.546875 7.578125 1.546875q5.265625 0 8.5 -2.625q3.25 -2.625 6.046875 -8.8125l4.78125 -10.828125l1.546875 -2.328125l31.25 -73.0l18.5625 0l-38.671875 89.25q-3.859375 9.265625 -8.578125 14.671875q-4.71875 5.421875 -10.515625 7.578125q-5.796875 2.171875 -12.765625 2.171875zm17.015625 -28.140625l-37.265625 -85.53125l20.09375 0l30.3125 71.296875l-13.140625 14.234375zm96.96625 -1.859375q-13.609375 0 -21.03125 -7.03125q-7.421875 -7.03125 -7.421875 -20.796875l0 -74.078125l19.328125 0l0 73.609375q0 5.875 3.015625 9.125q3.015625 3.25 8.4375 3.25q6.484375 0 10.8125 -3.40625l5.421875 13.765625q-3.40625 2.78125 -8.359375 4.171875q-4.9375 1.390625 -10.203125 1.390625zm-42.0625 -68.203125l0 -15.46875l55.0625 0l0 15.46875l-55.0625 0zm76.55859 67.125l0 -82.59375l19.328125 0l0 82.59375l-19.328125 0zm9.734375 -96.203125q-5.40625 0 -8.890625 -3.390625q-3.46875 -3.40625 -3.46875 -8.203125q0 -4.953125 3.46875 -8.265625q3.484375 -3.328125 8.890625 -3.328125q5.421875 0 8.890625 3.171875q3.484375 3.171875 3.484375 7.953125q0 5.109375 -3.40625 8.59375q-3.390625 3.46875 -8.96875 3.46875zm72.85187 97.28125q-13.0 0 -23.125 -5.484375q-10.125 -5.484375 -15.859375 -15.078125q-5.71875 -9.59375 -5.71875 -21.8125q0 -12.375 5.71875 -21.875q5.734375 -9.515625 15.859375 -14.921875q10.125 -5.421875 23.125 -5.421875q12.0625 0 21.265625 4.875q9.203125 4.875 13.984375 14.296875l-14.84375 8.671875q-3.703125 -5.875 -9.046875 -8.65625q-5.328125 -2.796875 -11.515625 -2.796875q-7.125 0 -12.84375 3.09375q-5.71875 3.09375 -8.96875 8.90625q-3.25 5.796875 -3.25 13.828125q0 8.046875 3.25 13.84375q3.25 5.796875 8.96875 8.890625q5.71875 3.09375 12.84375 3.09375q6.1875 0 11.515625 -2.78125q5.34375 -2.78125 9.046875 -8.65625l14.84375 8.65625q-4.78125 9.28125 -13.984375 14.3125q-9.203125 5.015625 -21.265625 5.015625zm77.480225 0q-10.359375 0 -19.875 -2.703125q-9.515625 -2.703125 -15.078125 -6.578125l7.421875 -14.6875q5.5625 3.5625 13.296875 5.890625q7.734375 2.3125 15.46875 2.3125q9.125 0 13.21875 -2.46875q4.109375 -2.484375 4.109375 -6.65625q0 -3.40625 -2.796875 -5.1875q-2.78125 -1.78125 -7.265625 -2.703125q-4.484375 -0.921875 -9.984375 -1.6875q-5.484375 -0.78125 -10.96875 -2.09375q-5.484375 -1.328125 -9.96875 -3.875q-4.484375 -2.546875 -7.28125 -6.875q-2.78125 -4.34375 -2.78125 -11.453125q0 -7.890625 4.484375 -13.6875q4.484375 -5.796875 12.609375 -8.96875q8.125 -3.171875 19.25 -3.171875q8.359375 0 16.859375 1.859375q8.515625 1.859375 14.078125 5.25l-7.421875 14.703125q-5.875 -3.5625 -11.84375 -4.875q-5.953125 -1.3125 -11.828125 -1.3125q-8.8125 0 -13.0625 2.625q-4.25 2.625 -4.25 6.65625q0 3.703125 2.78125 5.5625q2.78125 1.859375 7.265625 2.9375q4.484375 1.078125 9.96875 1.78125q5.5 0.6875 10.90625 2.09375q5.421875 1.390625 9.984375 3.78125q4.5625 2.390625 7.34375 6.734375q2.78125 4.328125 2.78125 11.28125q0 7.734375 -4.5625 13.453125q-4.5625 5.71875 -12.921875 8.890625q-8.34375 3.171875 -19.9375 3.171875z" fill-rule="nonzero"/></g></svg>