<svg version="1.1" viewBox="0.0 0.0 480.0 480.0" fill="none" stroke="none" stroke-linecap="square" stroke-miterlimit="10" xmlns:xlink="http://www.w3.org/1999/xlink" xmlns="http://www.w3.org/2000/svg"><clipPath id="p.0"><path d="m0 0l480.0 0l0 480.0l-480.0 0l0 -480.0z" clip-rule="nonzero"/></clipPath><g clip-path="url(#p.0)"><path fill="#ffffff" d="m0 0l480.0 0l0 480.0l-480.0 0z" fill-rule="evenodd"/><path fill="#c790af" d="m1.5748032E-6 240.00352l103.732285 -207.46448l272.53546 0l103.73227 207.46448l-103.73227 207.46446l-272.53546 0z" fill-rule="evenodd"/><path stroke="#c790af" stroke-width="3.0" stroke-linejoin="round" stroke-linecap="butt" d="m1.5748032E-6 240.00352l103.732285 -207.46448l272.53546 0l103.73227 207.46448l-103.73227 207.46446l-272.53546 0z" fill-rule="evenodd"/><path fill="#ffffff" d="m239.99237 376.70538q-54.828125 0 -85.734375 -30.546875q-30.906242 -30.546875 -30.906242 -87.21875l0 -144.25l59.609367 0l0 142.04688q0 36.796875 15.078125 52.984375q15.09375 16.1875 42.328125 16.1875q27.234375 0 42.3125 -16.1875q15.09375 -16.1875 15.09375 -52.984375l0 -142.04688l58.875 0l0 144.25q0 56.671875 -30.90625 87.21875q-30.90625 30.546875 -85.75 30.546875z" fill-rule="nonzero"/></g></svg>