<svg version="1.1" viewBox="0.0 0.0 960.0 540.0" fill="none" stroke="none" stroke-linecap="square" stroke-miterlimit="10" xmlns:xlink="http://www.w3.org/1999/xlink" xmlns="http://www.w3.org/2000/svg"><clipPath id="p.0"><path d="m0 0l960.0 0l0 540.0l-960.0 0l0 -540.0z" clip-rule="nonzero"/></clipPath><g clip-path="url(#p.0)"><path fill="#ffffff" d="m0 0l960.0 0l0 540.0l-960.0 0z" fill-rule="evenodd"/><path fill="#c790af" d="m94.968506 270.0l42.527557 -85.055084l111.732285 0l42.527573 85.055084l-42.527573 85.05505l-111.732285 0z" fill-rule="evenodd"/><path stroke="#c790af" stroke-width="3.0" stroke-linejoin="round" stroke-linecap="butt" d="m94.968506 270.0l42.527557 -85.055084l111.732285 0l42.527573 85.055084l-42.527573 85.05505l-111.732285 0z" fill-rule="evenodd"/><path fill="#ffffff" d="m193.36272 324.86124q-22.04689 0 -34.48439 -12.28125q-12.4375 -12.296875 -12.4375 -35.078125l0 -58.015625l23.984375 0l0 57.125q0 14.796875 6.0625 21.3125q6.078125 6.515625 17.01564 6.515625q10.953125 0 17.015625 -6.515625q6.078125 -6.515625 6.078125 -21.3125l0 -57.125l23.6875 0l0 58.015625q0 22.78125 -12.4375 35.078125q-12.4375 12.28125 -34.484375 12.28125z" fill-rule="nonzero"/><path fill="#000000" fill-opacity="0.0" d="m305.51178 170.61417l650.89764 0l0 198.77167l-650.89764 0z" fill-rule="evenodd"/><path fill="#c790af" d="m372.9649 323.17856q-21.3125 0 -33.375 -11.984375q-12.046875 -12.0 -12.046875 -34.640625l0 -58.45314l19.234375 0l0 57.718765q0 15.984375 6.875 23.234375q6.890625 7.25 19.46875 7.25q12.578125 0 19.375 -7.25q6.8125 -7.25 6.8125 -23.234375l0 -57.718765l18.953125 0l0 58.45314q0 22.640625 -12.0625 34.640625q-12.0625 11.984375 -33.234375 11.984375zm70.4595 -1.484375l0 -79.031265l17.609375 0l0 21.312515l-3.109375 -6.515625q4.140625 -7.5468903 12.0625 -11.60939q7.921875 -4.078125 18.28125 -4.078125q9.46875 0 16.9375 3.703125q7.4844055 3.703125 11.7656555 11.32814q4.296875 7.609375 4.296875 19.609375l0 45.28125l-18.50003 0l0 -42.921875q0 -10.5 -4.96875 -15.671875q-4.953125 -5.1875 -13.828125 -5.1875q-6.515625 0 -11.546875 2.671875q-5.03125 2.65625 -7.765625 7.90625q-2.734375 5.25 -2.734375 13.25l0 39.953125l-18.5 0zm105.956024 29.75q-5.765625 0 -11.546875 -1.921875q-5.765625 -1.921875 -9.609375 -5.328125l7.40625 -13.625q2.8125 2.515625 6.359375 4.0q3.546875 1.484375 7.25 1.484375q5.03125 0 8.140625 -2.515625q3.109375 -2.515625 5.765625 -8.4375l4.59375 -10.359375l1.484375 -2.21875l29.890625 -69.85939l17.765625 0l-37.0 85.39064q-3.703125 8.890625 -8.21875 14.0625q-4.515625 5.1875 -10.0625 7.25q-5.546875 2.078125 -12.21875 2.078125zm16.28125 -26.9375l-35.65625 -81.843765l19.234375 0l29.015625 68.23439l-12.59375 13.609375zm92.80878 -1.78125q-13.03125 0 -20.140625 -6.734375q-7.09375 -6.734375 -7.09375 -19.90625l0 -70.89064l18.5 0l0 70.45314q0 5.625 2.875 8.734375q2.890625 3.109375 8.078125 3.109375q6.203125 0 10.359375 -3.265625l5.171875 13.171875q-3.25 2.671875 -7.984375 4.0q-4.734375 1.328125 -9.765625 1.328125zm-40.265625 -65.265625l0 -14.79689l52.6875 0l0 14.79689l-52.6875 0zm73.26758 64.234375l0 -79.031265l18.5 0l0 79.031265l-18.5 0zm9.328125 -92.062515q-5.1875 0 -8.515625 -3.25q-3.328125 -3.25 -3.328125 -7.84375q0 -4.734375 3.328125 -7.90625q3.328125 -3.1875 8.515625 -3.1875q5.171875 0 8.5 3.03125q3.328125 3.03125 3.328125 7.625q0 4.875 -3.25 8.203125q-3.25 3.328125 -8.578125 3.328125zm69.69391 93.093765q-12.421875 0 -22.125 -5.25q-9.6875 -5.25 -15.171875 -14.421875q-5.46875 -9.1875 -5.46875 -20.875q0 -11.84375 5.46875 -20.9375q5.484375 -9.10939 15.171875 -14.281265q9.703125 -5.1875 22.125 -5.1875q11.546875 0 20.34375 4.671875q8.8125 4.65625 13.40625 13.687515l-14.203125 8.28125q-3.5625 -5.625 -8.671875 -8.28125q-5.09375 -2.671875 -11.015625 -2.671875q-6.8125 0 -12.296875 2.96875q-5.46875 2.953125 -8.578125 8.5q-3.109375 5.546875 -3.109375 13.25q0 7.703125 3.109375 13.25q3.109375 5.546875 8.578125 8.515625q5.484375 2.953125 12.296875 2.953125q5.921875 0 11.015625 -2.65625q5.109375 -2.671875 8.671875 -8.296875l14.203125 8.28125q-4.59375 8.890625 -13.40625 13.703125q-8.796875 4.796875 -20.34375 4.796875zm74.15985 0q-9.921875 0 -19.03125 -2.578125q-9.09375 -2.59375 -14.421875 -6.296875l7.109375 -14.0625q5.328125 3.40625 12.71875 5.625q7.40625 2.21875 14.796875 2.21875q8.734375 0 12.65625 -2.359375q3.921875 -2.375 3.921875 -6.375q0 -3.25 -2.671875 -4.953125q-2.65625 -1.703125 -6.953125 -2.59375q-4.28125 -0.890625 -9.546875 -1.625q-5.25 -0.734375 -10.5 -1.984375q-5.25 -1.265625 -9.546875 -3.703125q-4.296875 -2.453125 -6.96875 -6.59375q-2.65625 -4.140625 -2.65625 -10.953125q0 -7.546875 4.296875 -13.093765q4.296875 -5.5625 12.0625 -8.59375q7.765625 -3.03125 18.421875 -3.03125q8.0 0 16.140625 1.78125q8.140625 1.765625 13.46875 5.03125l-7.109375 14.062515q-5.625 -3.40625 -11.328125 -4.65625q-5.6875 -1.265625 -11.3125 -1.265625q-8.4375 0 -12.515625 2.515625q-4.0625 2.515625 -4.0625 6.359375q0 3.546875 2.65625 5.328125q2.671875 1.78125 6.953125 2.8125q4.296875 1.03125 9.546875 1.703125q5.265625 0.671875 10.4375 2.0q5.1875 1.328125 9.546875 3.625q4.375 2.296875 7.03125 6.4375q2.671875 4.140625 2.671875 10.796875q0 7.40625 -4.375 12.890625q-4.359375 5.46875 -12.359375 8.5q-7.984375 3.03125 -19.078125 3.03125z" fill-rule="nonzero"/></g></svg>